0
SECTION
2
HEADER
9
$INSUNITS
70
4
9
$ACADVER
1
AC1014
9
$HANDSEED
5
FFFF
0
ENDSEC
0
SECTION
2
TABLES
0
TABLE
2
VPORT
5
8
100
AcDbSymbolTable
0
ENDTAB
0
TABLE
2
LTYPE
5
5
100
AcDbSymbolTable
0
LTYPE
5
14
100
AcDbSymbolTableRecord
100
AcDbLinetypeTableRecord
2
BYBLOCK
70
0
0
LTYPE
5
15
100
AcDbSymbolTableRecord
100
AcDbLinetypeTableRecord
2
BYLAYER
70
0
0
LTYPE
5
16
100
AcDbSymbolTableRecord
100
AcDbLinetypeTableRecord
2
DASHED
70
0
3
Dashed __ __ __ __ __ __ __ __ __ __ __ __ __ _
72
65
73
2
40
0.75
49
0.5
74
0
49
-0.25
74
0
0
ENDTAB
0
TABLE
2
LAYER
5
2
100
AcDbSymbolTable
70
2
0
LAYER
5
50
100
AcDbSymbolTableRecord
100
AcDbLayerTableRecord
2
0
70
0
62
7
6
CONTINUOUS
0
ENDTAB
0
TABLE
2
STYLE
5
3
100
AcDbSymbolTable
70
1
0
STYLE
5
11
100
AcDbSymbolTableRecord
100
AcDbTextStyleTableRecord
2
STANDARD
70
0
0
ENDTAB
0
TABLE
2
VIEW
5
6
100
AcDbSymbolTable
70
0
0
ENDTAB
0
TABLE
2
UCS
5
7
100
AcDbSymbolTable
70
0
0
ENDTAB
0
TABLE
2
APPID
5
9
100
AcDbSymbolTable
70
2
0
APPID
5
12
100
AcDbSymbolTableRecord
100
AcDbRegAppTableRecord
2
ACAD
70
0
0
ENDTAB
0
TABLE
2
DIMSTYLE
5
A
100
AcDbSymbolTable
70
1
0
ENDTAB
0
TABLE
2
BLOCK_RECORD
5
1
100
AcDbSymbolTable
70
1
0
BLOCK_RECORD
5
1F
100
AcDbSymbolTableRecord
100
AcDbBlockTableRecord
2
*MODEL_SPACE
0
BLOCK_RECORD
5
1B
100
AcDbSymbolTableRecord
100
AcDbBlockTableRecord
2
*PAPER_SPACE
0
ENDTAB
0
ENDSEC
0
SECTION
2
BLOCKS
0
BLOCK
5
20
100
AcDbEntity
100
AcDbBlockBegin
2
*MODEL_SPACE
0
ENDBLK
5
21
100
AcDbEntity
100
AcDbBlockEnd
0
BLOCK
5
1C
100
AcDbEntity
100
AcDbBlockBegin
2
*PAPER_SPACE
0
ENDBLK
5
1D
100
AcDbEntity
100
AcDbBlockEnd
0
ENDSEC
0
SECTION
2
ENTITIES
0
CIRCLE
5
100
100
AcDbEntity
8
0
100
AcDbCircle
10
171.69226202628857
20
-60.25
30
0
40
3.0000000000000071
210
0
220
-0
230
1
0
CIRCLE
5
101
100
AcDbEntity
8
0
100
AcDbCircle
10
8.3077379737114754
20
-19.749999999999979
30
0
40
3.0000000000000071
210
0
220
-0
230
1
0
CIRCLE
5
102
100
AcDbEntity
8
0
100
AcDbCircle
10
171.69226202628857
20
-19.749999999999979
30
0
40
3.0000000000000071
210
0
220
-0
230
1
0
CIRCLE
5
103
100
AcDbEntity
8
0
100
AcDbCircle
10
8.3077379737114754
20
-60.25
30
0
40
3.0000000000000071
210
0
220
-0
230
1
0
LWPOLYLINE
5
104
100
AcDbEntity
8
0
100
AcDbPolyline
90
4
70
1
43
0.0
10
175.78452405257713
20
0.50000000000001432
10
4.215475947422469
20
0.50000000000046674
10
4.215475947422469
20
-80.5
10
175.78452405257713
20
-80.5
0
LWPOLYLINE
5
105
100
AcDbEntity
8
0
100
AcDbPolyline
90
8
70
1
43
0.0
10
78.102915637879406
20
-69.6958551818514
10
78.102915637879263
20
-66.695855181851499
10
77.102915637879306
20
-66.695855181851528
10
77.10291563787915
20
-62.695855077543541
10
78.102915637879136
20
-62.695855077543506
10
78.102915637878979
20
-59.695855181851734
10
161.10291563787735
20
-59.695855181848898
10
161.10291563787774
20
-69.695855181848572
0
LWPOLYLINE
5
106
100
AcDbEntity
8
0
100
AcDbPolyline
90
4
70
1
43
0.0
10
60.5000014975667
20
-31.500000469386578
10
60.5000014975667
20
-35.500000528991222
10
39.500001184642315
20
-35.500000528991222
10
39.500001184642315
20
-31.500000469386578
0
CIRCLE
5
107
100
AcDbEntity
8
0
100
AcDbCircle
10
57.476676114194483
20
-45.121033697937392
30
0
40
1.5084061199832988
210
0
220
-0
230
1
0
CIRCLE
5
108
100
AcDbEntity
8
0
100
AcDbCircle
10
42.415849398481654
20
-45.143854766162562
30
0
40
1.432436329254223
210
0
220
-0
230
1
0
LWPOLYLINE
5
109
100
AcDbEntity
8
0
100
AcDbPolyline
90
4
70
1
43
0.0
10
84.999998584389687
20
-44.999999478459344
10
84.999998584389687
20
-35.000000521540642
10
95.000001415610313
20
-35.000000521540642
10
95.000001415610313
20
-44.999999478459344
0
LWPOLYLINE
5
110
100
AcDbEntity
8
0
100
AcDbPolyline
90
6
70
1
43
0.0
10
145.82529430658403
20
-38.721598473441439
10
155.06289861361805
20
-38.721598473441475
10
159.68170076713503
20
-46.72159847344151
10
155.06289861361799
20
-54.72159847344151
10
145.82529430658394
20
-54.721598473441453
10
141.20649215306696
20
-46.721598473441432
0
LWPOLYLINE
5
111
100
AcDbEntity
8
0
100
AcDbPolyline
90
6
70
1
43
0.0
10
95.185209375638806
20
-55.609599236720385
10
99.804011529155872
20
-47.609599236720392
10
109.04161583618989
20
-47.609599236720435
10
113.66041798970687
20
-55.60959923672047
10
113.0332678273772
20
-56.695855181850547
10
95.812359537968888
20
-56.69585518185113
0
LWPOLYLINE
5
112
100
AcDbEntity
8
0
100
AcDbPolyline
90
8
70
1
43
0.0
10
82.617365545801562
20
-72.695855181851257
10
82.979562804754735
20
-73.323199236720313
10
80.568085759723758
20
-77.499999999999986
10
66.915831235717604
20
-77.499999999999943
10
64.504354190686669
20
-73.323199236720228
10
69.123156344203721
20
-65.323199236720228
10
75.102915637879221
20
-65.323199236720257
10
75.102915637879562
20
-72.695855181851513
0
LWPOLYLINE
5
113
100
AcDbEntity
8
0
100
AcDbPolyline
90
6
70
1
43
0.0
10
125.86606456059081
20
-73.260797710162137
10
126.19223428138861
20
-72.695855181849808
10
144.01510345386069
20
-72.695855181849154
10
144.34127317465888
20
-73.260797710162223
10
141.89376859147166
20
-77.500000000000142
10
128.31356914377801
20
-77.500000000000114
0
LWPOLYLINE
5
114
100
AcDbEntity
8
0
100
AcDbPolyline
90
5
70
1
43
0.0
10
161.16572189906006
20
-45.864798473441539
10
156.54691974554305
20
-37.864798473441503
10
161.16572189906009
20
-29.86479847344151
10
165.78452405257718
20
-29.864798473441525
10
165.78452405257713
20
-45.864798473441567
0
LWPOLYLINE
5
115
100
AcDbEntity
8
0
100
AcDbPolyline
90
6
70
1
43
0.0
10
115.14443912163202
20
-21.07039999999968
10
124.38204342866605
20
-21.070399999999722
10
129.00084558218305
20
-29.070399999999758
10
124.38204342866598
20
-37.070399999999758
10
115.14443912163195
20
-37.070399999999708
10
110.52563696811497
20
-29.070399999999673
0
LWPOLYLINE
5
116
100
AcDbEntity
8
0
100
AcDbPolyline
90
6
70
1
43
0.0
10
69.123156344203949
20
-12.276001526557852
10
78.360760651237982
20
-12.276001526557891
10
82.979562804754963
20
-20.276001526557931
10
78.360760651237911
20
-28.276001526557927
10
69.123156344203878
20
-28.276001526557877
10
64.504354190686897
20
-20.276001526557845
0
LWPOLYLINE
5
117
100
AcDbEntity
8
0
100
AcDbPolyline
90
6
70
1
43
0.0
10
53.782728751727703
20
-56.497599999999359
10
63.020333058761736
20
-56.497599999999402
10
67.639135212278717
20
-64.497599999999437
10
63.020333058761665
20
-72.497599999999437
10
53.782728751727632
20
-72.49759999999938
10
49.163926598210651
20
-64.497599999999352
0
LWPOLYLINE
5
118
100
AcDbEntity
8
0
100
AcDbPolyline
90
3
70
1
43
0.0
10
37.000001147389412
20
-32.487738426860503
10
37.000001147389412
20
-43.491464626254952
10
33.823499005734746
20
-37.989601526557671
0
LWPOLYLINE
5
119
100
AcDbEntity
8
0
100
AcDbPolyline
90
5
70
1
43
0.0
10
14.215475947422433
20
-65.385600763278333
10
16.999050281333581
20
-65.385600763278347
10
21.617852434850562
20
-73.38560076327839
10
19.242402927975824
20
-77.499999999999815
10
14.21547594742237
20
-77.499999999999801
0
LWPOLYLINE
5
120
100
AcDbEntity
8
0
100
AcDbPolyline
90
5
70
1
43
0.0
10
21.617852434850882
20
-2.6560038163952093
10
16.99905028133383
20
-10.656003816395208
10
14.215475947422719
20
-10.65600381639519
10
14.215475947422753
20
-2.4999999999995581
10
21.527783589460263
20
-2.4999999999995777
0
LWPOLYLINE
5
121
100
AcDbEntity
8
0
100
AcDbPolyline
90
6
70
1
43
0.0
10
53.782728751727937
20
-3.4504022898369771
10
63.02033305876197
20
-3.4504022898370179
10
67.639135212278944
20
-11.450402289837056
10
63.020333058761899
20
-19.450402289837054
10
53.782728751727866
20
-19.450402289837005
10
49.163926598210885
20
-11.450402289836973
0
LWPOLYLINE
5
122
100
AcDbEntity
8
0
100
AcDbPolyline
90
6
70
1
43
0.0
10
115.1444391216321
20
-3.3880007632788853
10
124.38204342866614
20
-3.3880007632789266
10
129.00084558218313
20
-11.388000763278965
10
124.38204342866607
20
-19.388000763278963
10
115.14443912163203
20
-19.38800076327891
10
110.52563696811505
20
-11.38800076327888
0
LWPOLYLINE
5
123
100
AcDbEntity
8
0
100
AcDbPolyline
90
4
70
1
43
0.0
10
165.78452405257721
20
-10.499999999999972
10
161.1657218990602
20
-10.499999999999947
10
156.54691974554322
20
-2.4999999999999156
10
165.78452405257724
20
-2.4999999999999614
0
LWPOLYLINE
5
124
100
AcDbEntity
8
0
100
AcDbPolyline
90
6
70
1
43
0.0
10
113.66041798970713
20
-2.5624015265580846
10
109.04161583619008
20
-10.562401526558084
10
99.804011529156043
20
-10.562401526558032
10
95.185209375639062
20
-2.5624015265580002
10
95.221236913795281
20
-2.499999999999774
10
113.62439045155088
20
-2.4999999999998228
0
LWPOLYLINE
5
125
100
AcDbEntity
8
0
100
AcDbPolyline
90
6
70
1
43
0.0
10
52.298707619802975
20
-2.6248030531161692
10
47.679905466285923
20
-10.624803053116167
10
38.44230115925189
20
-10.624803053116116
10
33.823499005734909
20
-2.6248030531160849
10
33.895554082047369
20
-2.499999999999611
10
52.226652543490474
20
-2.4999999999996594
0
LWPOLYLINE
5
126
100
AcDbEntity
8
0
100
AcDbPolyline
90
5
70
1
43
0.0
10
16.99905028133383
20
-12.338403053115968
10
21.617852434850811
20
-20.338403053116004
10
16.999050281333759
20
-28.338403053116004
10
14.215475947422627
20
-28.338403053115975
10
14.215475947422711
20
-12.338403053115954
0
LWPOLYLINE
5
127
100
AcDbEntity
8
0
100
AcDbPolyline
90
6
70
1
43
0.0
10
23.10187356677563
20
-56.52880076327839
10
32.339477873809663
20
-56.528800763278433
10
36.958280027326644
20
-64.528800763278468
10
32.339477873809592
20
-72.528800763278468
10
23.101873566775559
20
-72.528800763278412
10
18.483071413258578
20
-64.528800763278383
0
LWPOLYLINE
5
128
100
AcDbEntity
8
0
100
AcDbPolyline
90
6
70
1
43
0.0
10
37.299701360943537
20
-49.651041666666167
10
48.822505264593872
20
-49.651041666666167
10
52.298707619802727
20
-55.672000763278547
10
47.679905466285675
20
-63.672000763278547
10
38.442301159251642
20
-63.67200076327849
10
33.823499005734661
20
-55.672000763278469
0
LWPOLYLINE
5
129
100
AcDbEntity
8
0
100
AcDbPolyline
90
7
70
1
43
0.0
10
63.020333058761736
20
-54.815200763278639
10
53.782728751727703
20
-54.815200763278582
10
50.801200107160504
20
-49.651041666666167
10
63.000001534819603
20
-49.651041666666167
10
63.000001534819603
20
-41.989601526557905
10
64.853074193956843
20
-41.989601526557905
10
67.639135212278788
20
-46.815200763278639
0
LWPOLYLINE
5
130
100
AcDbEntity
8
0
100
AcDbPolyline
90
7
70
1
43
0.0
10
82.999998584389687
20
-34.566596571898501
10
79.844781783162901
20
-29.101600763278711
10
84.463583936679953
20
-21.101600763278718
10
93.701188243714
20
-21.101600763278757
10
98.319990397230981
20
-29.101600763278796
10
96.069248247389694
20
-33.000000521540642
10
82.999998584389687
20
-33.000000521540642
0
LWPOLYLINE
5
131
100
AcDbEntity
8
0
100
AcDbPolyline
90
6
70
1
43
0.0
10
130.48486671410811
20
-12.213599999999758
10
139.72247102114213
20
-12.213599999999797
10
144.34127317465911
20
-20.213599999999836
10
139.72247102114207
20
-28.213599999999836
10
130.48486671410802
20
-28.213599999999779
10
125.86606456059104
20
-20.213599999999751
0
LWPOLYLINE
5
132
100
AcDbEntity
8
0
100
AcDbPolyline
90
7
70
1
43
0.0
10
157.21009744602796
20
-56.695855181849033
10
156.54691974554299
20
-55.547197710162301
10
161.16572189906003
20
-47.547197710162301
10
165.7845240525771
20
-47.547197710162322
10
165.78452405257707
20
-63.547197710162351
10
164.10291563787752
20
-63.547197710162344
10
164.1029156378772
20
-56.695855181848799
0
LWPOLYLINE
5
133
100
AcDbEntity
8
0
100
AcDbPolyline
90
4
70
1
43
0.0
10
115.14443912163179
20
-74.117597710162059
10
124.38204342866582
20
-74.117597710162102
10
126.33487430121137
20
-77.500000000000099
10
113.1916082490862
20
-77.500000000000057
0
LWPOLYLINE
5
134
100
AcDbEntity
8
0
100
AcDbPolyline
90
4
70
1
43
0.0
10
53.782728751727632
20
-74.17999923672015
10
63.020333058761665
20
-74.179999236720192
10
64.937136393150979
20
-77.499999999999943
10
51.865925417338289
20
-77.499999999999901
0
LWPOLYLINE
5
135
100
AcDbEntity
8
0
100
AcDbPolyline
90
6
70
1
43
0.0
10
115.14443912163195
20
-38.752799236720477
10
124.38204342866598
20
-38.752799236720513
10
129.00084558218296
20
-46.752799236720548
10
124.38204342866591
20
-54.752799236720548
10
115.14443912163188
20
-54.752799236720492
10
110.5256369681149
20
-46.75279923672047
0
LWPOLYLINE
5
136
100
AcDbEntity
8
0
100
AcDbPolyline
90
6
70
1
43
0.0
10
130.48486671410802
20
-29.895999236720556
10
139.72247102114207
20
-29.895999236720595
10
144.34127317465905
20
-37.895999236720634
10
139.72247102114198
20
-45.895999236720627
10
130.48486671410797
20
-45.895999236720577
10
125.86606456059098
20
-37.895999236720549
0
LWPOLYLINE
5
137
100
AcDbEntity
8
0
100
AcDbPolyline
90
6
70
1
43
0.0
10
98.195283040197324
20
-46.999999478459344
10
93.70118824371383
20
-54.783999999999587
10
84.463583936679797
20
-54.783999999999537
10
79.844781783162816
20
-46.783999999999509
10
82.999998584389687
20
-41.319004191379669
10
82.999998584389687
20
-46.999999478459344
0
LWPOLYLINE
5
138
100
AcDbEntity
8
0
100
AcDbPolyline
90
4
70
1
43
0.0
10
84.463583936679711
20
-74.148798473441104
10
93.701188243713744
20
-74.148798473441133
10
95.636005347181168
20
-77.500000000000014
10
82.528766833212245
20
-77.499999999999986
0
LWPOLYLINE
5
139
100
AcDbEntity
8
0
100
AcDbPolyline
90
4
70
1
43
0.0
10
145.82529430658388
20
-74.086396946883013
10
155.0628986136179
20
-74.086396946883056
10
157.0337432552416
20
-77.500000000000171
10
143.85444966496019
20
-77.500000000000142
0
LWPOLYLINE
5
140
100
AcDbEntity
8
0
100
AcDbPolyline
90
5
70
1
43
0.0
10
161.16572189906012
20
-28.182399236720741
10
156.54691974554314
20
-20.182399236720713
10
161.1657218990602
20
-12.182399236720718
10
165.78452405257721
20
-12.182399236720745
10
165.78452405257718
20
-28.182399236720759
0
LWPOLYLINE
5
141
100
AcDbEntity
8
0
100
AcDbPolyline
90
7
70
1
43
0.0
10
97.000001415610313
20
-41.070512018401658
10
97.000001415610313
20
-34.783887981597573
10
99.804011529155957
20
-29.927199999999594
10
109.04161583618999
20
-29.927199999999633
10
113.66041798970697
20
-37.927199999999672
10
109.04161583618992
20
-45.927199999999672
10
99.804011529155886
20
-45.927199999999615
0
LWPOLYLINE
5
142
100
AcDbEntity
8
0
100
AcDbPolyline
90
7
70
1
43
0.0
10
82.13965506111893
20
-39.413163648926684
10
78.360760651237825
20
-45.958400763278718
10
69.123156344203792
20
-45.958400763278668
10
64.504354190686811
20
-37.95840076327864
10
69.123156344203863
20
-29.958400763278643
10
78.360760651237896
20
-29.958400763278682
10
82.13965506111893
20
-36.503637877630709
0
LWPOLYLINE
5
143
100
AcDbEntity
8
0
100
AcDbPolyline
90
4
70
1
43
0.0
10
23.101873566775559
20
-74.211199999999181
10
32.339477873809592
20
-74.211199999999224
10
34.238267439120776
20
-77.499999999999858
10
21.20308400146433
20
-77.499999999999829
0
LWPOLYLINE
5
144
100
AcDbEntity
8
0
100
AcDbPolyline
90
7
70
1
43
0.0
10
36.257461810944378
20
-30.377855047481027
10
32.339477873809756
20
-37.16400228983688
10
23.101873566775719
20
-37.16400228983683
10
18.483071413258738
20
-29.164002289836798
10
23.10187356677579
20
-21.164002289836805
10
32.339477873809827
20
-21.164002289836844
10
36.257461810944378
20
-27.950149532192711
0
LWPOLYLINE
5
145
100
AcDbEntity
8
0
100
AcDbPolyline
90
5
70
1
43
0.0
10
16.99905028133367
20
-47.70320152655755
10
21.617852434850651
20
-55.703201526557592
10
16.999050281333599
20
-63.703201526557585
10
14.215475947422442
20
-63.703201526557571
10
14.215475947422524
20
-47.70320152655755
0
LWPOLYLINE
5
146
100
AcDbEntity
8
0
100
AcDbPolyline
90
6
70
1
43
0.0
10
23.101873566775879
20
-3.4816030531160083
10
32.339477873809912
20
-3.4816030531160491
10
36.958280027326893
20
-11.481603053116087
10
32.339477873809841
20
-19.481603053116086
10
23.101873566775808
20
-19.481603053116036
10
18.483071413258827
20
-11.481603053116004
0
LWPOLYLINE
5
147
100
AcDbEntity
8
0
100
AcDbPolyline
90
6
70
1
43
0.0
10
82.979562804755034
20
-2.593602289837138
10
78.360760651237982
20
-10.593602289837136
10
69.123156344203949
20
-10.593602289837085
10
64.504354190686968
20
-2.5936022898370537
10
64.558395497921325
20
-2.4999999999996922
10
82.925521497520663
20
-2.4999999999997411
0
LWPOLYLINE
5
148
100
AcDbEntity
8
0
100
AcDbPolyline
90
6
70
1
43
0.0
10
144.34127317465919
20
-2.5312007632790423
10
139.72247102114216
20
-10.53120076327904
10
130.48486671410811
20
-10.531200763278989
10
125.86606456059114
20
-2.5312007632789579
10
125.88407832966925
20
-2.4999999999998552
10
144.32325940558107
20
-2.4999999999999041
0
LWPOLYLINE
5
149
100
AcDbEntity
8
0
100
AcDbPolyline
90
6
70
1
43
0.0
10
145.82529430658417
20
-3.356799999999839
10
155.06289861361822
20
-3.3567999999998799
10
159.6817007671352
20
-11.356799999999918
10
155.06289861361813
20
-19.356799999999915
10
145.82529430658411
20
-19.356799999999865
10
141.20649215306713
20
-11.356799999999833
0
LWPOLYLINE
5
150
100
AcDbEntity
8
0
100
AcDbPolyline
90
6
70
1
43
0.0
10
84.463583936680038
20
-3.4192015265579236
10
93.701188243714057
20
-3.4192015265579645
10
98.319990397231038
20
-11.419201526558002
10
93.701188243714
20
-19.419201526558002
10
84.463583936679953
20
-19.419201526557949
10
79.844781783162972
20
-11.419201526557918
0
LWPOLYLINE
5
151
100
AcDbEntity
8
0
100
AcDbPolyline
90
6
70
1
43
0.0
10
47.857268550129568
20
-28.000000417232513
10
38.264938075408097
20
-28.000000417232513
10
33.823499005734817
20
-20.30720228983688
10
38.442301159251869
20
-12.307202289836887
10
47.679905466285902
20
-12.307202289836926
10
52.298707619802883
20
-20.307202289836965
0
LWPOLYLINE
5
152
100
AcDbEntity
8
0
100
AcDbPolyline
90
5
70
1
43
0.0
10
16.999050281333741
20
-30.020802289836762
10
21.617852434850722
20
-38.020802289836801
10
16.99905028133367
20
-46.020802289836801
10
14.215475947422533
20
-46.020802289836794
10
14.215475947422618
20
-30.020802289836752
0
LWPOLYLINE
5
153
100
AcDbEntity
8
0
100
AcDbPolyline
90
7
70
1
43
0.0
10
36.274855542329959
20
-48.030673797477348
10
32.341609477182914
20
-54.847449828515565
10
23.104005498066368
20
-54.849911198848446
10
18.4830718992717
20
-46.851142167999747
10
23.099742279593578
20
-38.849911766818167
10
32.33734625871012
20
-38.847450396485279
10
36.274855542329959
20
-45.663221851135233
0
LWPOLYLINE
5
154
100
AcDbEntity
8
0
100
AcDbPolyline
90
6
70
1
43
0.0
10
33.82349900573459
20
-73.354399999999259
10
38.442301159251642
20
-65.354399999999259
10
47.679905466285675
20
-65.354399999999316
10
52.298707619802656
20
-73.354399999999345
10
49.905244343849802
20
-77.499999999999901
10
36.216962281687415
20
-77.499999999999872
0
LWPOLYLINE
5
155
100
AcDbEntity
8
0
100
AcDbPolyline
90
7
70
1
43
0.0
10
63.000001534819603
20
-33.95840076327864
10
63.000001534819603
20
-28.000000417232513
10
49.817949623618063
20
-28.000000417232513
10
53.782728751727866
20
-21.13280152655777
10
63.020333058761899
20
-21.13280152655781
10
67.639135212278887
20
-29.132801526557849
10
64.853074193956843
20
-33.95840076327864
0
LWPOLYLINE
5
156
100
AcDbEntity
8
0
100
AcDbPolyline
90
6
70
1
43
0.0
10
99.804011529156043
20
-12.244800763278803
10
109.04161583619008
20
-12.244800763278839
10
113.66041798970706
20
-20.244800763278874
10
109.04161583619
20
-28.244800763278874
10
99.804011529155972
20
-28.244800763278825
10
95.185209375638991
20
-20.244800763278796
0
LWPOLYLINE
5
157
100
AcDbEntity
8
0
100
AcDbPolyline
90
6
70
1
43
0.0
10
145.82529430658411
20
-21.039199236720634
10
155.06289861361813
20
-21.039199236720677
10
159.68170076713511
20
-29.039199236720712
10
155.06289861361807
20
-37.039199236720712
10
145.82529430658406
20
-37.039199236720663
10
141.20649215306707
20
-29.039199236720631
0
LWPOLYLINE
5
158
100
AcDbEntity
8
0
100
AcDbPolyline
90
7
70
1
43
0.0
10
156.54691974554288
20
-73.229596946883092
10
156.85507569726323
20
-72.695855181848714
10
164.10291563787791
20
-72.695855181848458
10
164.10291563787757
20
-65.22959694688312
10
165.78452405257707
20
-65.22959694688312
10
165.78452405257704
20
-77.500000000000199
10
159.0124380978082
20
-77.500000000000185
0
LWPOLYLINE
5
159
100
AcDbEntity
8
0
100
AcDbPolyline
90
6
70
1
43
0.0
10
95.185209375638749
20
-73.291998473441183
10
95.529392865513955
20
-72.695855181850945
10
113.31623449983115
20
-72.695855181850291
10
113.66041798970681
20
-73.291998473441268
10
111.2309271755977
20
-77.500000000000057
10
97.614700189747794
20
-77.500000000000028
0
LWPOLYLINE
5
160
100
AcDbEntity
8
0
100
AcDbPolyline
90
8
70
1
43
0.0
10
75.10291563787915
20
-63.640799999999501
10
69.123156344203721
20
-63.640799999999459
10
64.50435419068674
20
-55.640799999999437
10
69.123156344203792
20
-47.640799999999437
10
78.360760651237825
20
-47.640799999999487
10
82.979562804754806
20
-55.640799999999516
10
82.370426411502606
20
-56.695855181851591
10
75.102915637878837
20
-56.69585518185184
0
LWPOLYLINE
5
161
100
AcDbEntity
8
0
100
AcDbPolyline
90
6
70
1
43
0.0
10
125.8660645605909
20
-55.578398473441347
10
130.48486671410797
20
-47.578398473441354
10
139.72247102114198
20
-47.578398473441396
10
144.34127317465897
20
-55.578398473441425
10
143.69610924325181
20
-56.695855181849495
10
126.51122849199845
20
-56.695855181850085
0
ENDSEC
0
SECTION
2
OBJECTS
0
DICTIONARY
5
C
100
AcDbDictionary
3
ACAD_GROUP
350
D
3
ACAD_MLINESTYLE
350
17
0
DICTIONARY
5
D
100
AcDbDictionary
0
DICTIONARY
5
1A
330
C
100
AcDbDictionary
0
DICTIONARY
5
17
100
AcDbDictionary
0
ENDSEC
0
EOF
