0
SECTION
2
HEADER
9
$INSUNITS
70
4
9
$ACADVER
1
AC1014
9
$HANDSEED
5
FFFF
0
ENDSEC
0
SECTION
2
TABLES
0
TABLE
2
VPORT
5
8
100
AcDbSymbolTable
0
ENDTAB
0
TABLE
2
LTYPE
5
5
100
AcDbSymbolTable
0
LTYPE
5
14
100
AcDbSymbolTableRecord
100
AcDbLinetypeTableRecord
2
BYBLOCK
70
0
0
LTYPE
5
15
100
AcDbSymbolTableRecord
100
AcDbLinetypeTableRecord
2
BYLAYER
70
0
0
LTYPE
5
16
100
AcDbSymbolTableRecord
100
AcDbLinetypeTableRecord
2
DASHED
70
0
3
Dashed __ __ __ __ __ __ __ __ __ __ __ __ __ _
72
65
73
2
40
0.75
49
0.5
74
0
49
-0.25
74
0
0
ENDTAB
0
TABLE
2
LAYER
5
2
100
AcDbSymbolTable
70
2
0
LAYER
5
50
100
AcDbSymbolTableRecord
100
AcDbLayerTableRecord
2
0
70
0
62
7
6
CONTINUOUS
0
ENDTAB
0
TABLE
2
STYLE
5
3
100
AcDbSymbolTable
70
1
0
STYLE
5
11
100
AcDbSymbolTableRecord
100
AcDbTextStyleTableRecord
2
STANDARD
70
0
0
ENDTAB
0
TABLE
2
VIEW
5
6
100
AcDbSymbolTable
70
0
0
ENDTAB
0
TABLE
2
UCS
5
7
100
AcDbSymbolTable
70
0
0
ENDTAB
0
TABLE
2
APPID
5
9
100
AcDbSymbolTable
70
2
0
APPID
5
12
100
AcDbSymbolTableRecord
100
AcDbRegAppTableRecord
2
ACAD
70
0
0
ENDTAB
0
TABLE
2
DIMSTYLE
5
A
100
AcDbSymbolTable
70
1
0
ENDTAB
0
TABLE
2
BLOCK_RECORD
5
1
100
AcDbSymbolTable
70
1
0
BLOCK_RECORD
5
1F
100
AcDbSymbolTableRecord
100
AcDbBlockTableRecord
2
*MODEL_SPACE
0
BLOCK_RECORD
5
1B
100
AcDbSymbolTableRecord
100
AcDbBlockTableRecord
2
*PAPER_SPACE
0
ENDTAB
0
ENDSEC
0
SECTION
2
BLOCKS
0
BLOCK
5
20
100
AcDbEntity
100
AcDbBlockBegin
2
*MODEL_SPACE
0
ENDBLK
5
21
100
AcDbEntity
100
AcDbBlockEnd
0
BLOCK
5
1C
100
AcDbEntity
100
AcDbBlockBegin
2
*PAPER_SPACE
0
ENDBLK
5
1D
100
AcDbEntity
100
AcDbBlockEnd
0
ENDSEC
0
SECTION
2
ENTITIES
0
LWPOLYLINE
5
100
100
AcDbEntity
8
0
100
AcDbPolyline
90
4
70
1
43
0.0
10
0
20
-0.99999999999999822
10
0
20
51
10
-80
20
51
10
-80
20
-0.99999999999999645
0
CIRCLE
5
101
100
AcDbEntity
8
0
100
AcDbCircle
10
-48.75
20
7.5
30
0
40
1.4999999999999947
210
0
220
-0
230
1
0
CIRCLE
5
102
100
AcDbEntity
8
0
100
AcDbCircle
10
-31.25
20
7.5
30
0
40
1.4999999999999991
210
0
220
-0
230
1
0
CIRCLE
5
103
100
AcDbEntity
8
0
100
AcDbCircle
10
-2.5000000372529048
20
7.0000001043081292
30
0
40
1.5000000000000002
210
0
220
-0
230
1
0
CIRCLE
5
104
100
AcDbEntity
8
0
100
AcDbCircle
10
-77.499999962747097
20
7.0000001043081292
30
0
40
1.5000000000000002
210
0
220
-0
230
1
0
LWPOLYLINE
5
105
100
AcDbEntity
8
0
100
AcDbPolyline
90
10
70
1
43
0.0
10
-75.508582797507373
20
11.183625318128216
10
-75.508582797507373
20
15.723080663298877
10
-71.500001087784824
20
19.848815392226658
10
-45.910399988187123
20
19.834482892635403
10
-42.959270407770461
20
18.127926587316406
10
-42.959270407770461
20
12.749333908883596
10
-52.865666875061244
20
12.749333908883598
10
-55.583171117977137
20
8.0424784903692608
10
-67.010976509864591
20
8.042478490369259
10
-72.198734855980149
20
7.9677627404057088
0
LWPOLYLINE
5
106
100
AcDbEntity
8
0
100
AcDbPolyline
90
10
70
1
43
0.0
10
-37.047807951035651
20
18.123840583209443
10
-34.091637076046432
20
19.827863312519707
10
-8.5000001043081284
20
19.813529672655239
10
-4.4614798567735345
20
15.775006674095968
10
-4.4614798567735345
20
11.258490707921418
10
-7.7199735609393443
20
7.9999992234276283
10
-12.899496305046663
20
8.0000009875625384
10
-24.392304363443884
20
8.0000007781593041
10
-27.134333124938763
20
12.749333908883592
10
-37.047807951035651
20
12.749333908883596
0
LWPOLYLINE
5
107
100
AcDbEntity
8
0
100
AcDbPolyline
90
8
70
1
43
0.0
10
-42.952193241057287
20
28.366879909417058
10
-45.896904166120407
20
26.669463028001452
10
-71.500001087784753
20
26.702422758956253
10
-75.500001147389412
20
30.588840120061647
10
-75.500001147389412
20
34.322494044787128
10
-72.490808786803896
20
37.419631717690152
10
-66.992275033125026
20
37.498823354172679
10
-42.952193241057287
20
37.498823354172679
0
LWPOLYLINE
5
108
100
AcDbEntity
8
0
100
AcDbPolyline
90
7
70
1
43
0.0
10
-34.086179083740582
20
26.654258682906491
10
-37.040730784322463
20
28.362793905310092
10
-37.040730784322463
20
37.498823354172686
10
-7.6201432208951747
20
37.498823354172686
10
-4.5000000447034836
20
34.378680177980996
10
-4.5000000447034845
20
30.621320790594492
10
-8.5000001043081319
20
26.621320730989829
0
CIRCLE
5
109
100
AcDbEntity
8
0
100
AcDbCircle
10
-59.999999850972436
20
44.499411677086336
30
0
40
2.9999999999999982
210
0
220
-0
230
1
0
CIRCLE
5
110
100
AcDbEntity
8
0
100
AcDbCircle
10
-19.99999985097244
20
44.499411677086336
30
0
40
3.0000000000000027
210
0
220
-0
230
1
0
ENDSEC
0
SECTION
2
OBJECTS
0
DICTIONARY
5
C
100
AcDbDictionary
3
ACAD_GROUP
350
D
3
ACAD_MLINESTYLE
350
17
0
DICTIONARY
5
D
100
AcDbDictionary
0
DICTIONARY
5
1A
330
C
100
AcDbDictionary
0
DICTIONARY
5
17
100
AcDbDictionary
0
ENDSEC
0
EOF
